<?xml version="1.0" encoding="UTF-8"?>
<!DOCTYPE svg PUBLIC "-//W3C//DTD SVG 1.1//EN" "http://www.w3.org/Graphics/SVG/1.1/DTD/svg11.dtd">
<!-- Creator: CorelDRAW X8 -->
<svg xmlns="http://www.w3.org/2000/svg" xml:space="preserve" width="157.248mm" height="15.2714mm" version="1.1" style="shape-rendering:geometricPrecision; text-rendering:geometricPrecision; image-rendering:optimizeQuality; fill-rule:evenodd; clip-rule:evenodd"
viewBox="0 0 13659 1327"
 xmlns:xlink="http://www.w3.org/1999/xlink">
 <defs>
  <style type="text/css">
   <![CDATA[
    .fil1 {fill:#FEFEFE}
    .fil0 {fill:#FEFEFE;fill-rule:nonzero}
   ]]>
  </style>
 </defs>
 <g id="图层_x0020_1">
  <metadata id="CorelCorpID_0Corel-Layer"/>
  <polygon class="fil0" points="1683,999 2407,999 2407,1180 1503,1180 1503,275 2407,275 2407,456 1683,456 1683,637 2407,637 2407,818 1683,818 "/>
  <path id="1" class="fil0" d="M3144 637c101,0 151,-30 151,-90 0,-60 -50,-91 -151,-91l-392 0 0 181 392 0zm-304 181l-88 0 0 362 -181 0 0 -905 603 0c201,0 302,91 302,272 0,181 -101,271 -302,271l-56 0 425 362 -278 0 -425 -362z"/>
  <polygon id="2" class="fil0" points="4001,456 3640,456 3639,275 4544,275 4544,456 4182,456 4182,1180 4001,1180 "/>
  <polygon id="3" class="fil0" points="4888,1180 4708,1180 4708,275 4888,275 "/>
  <polygon id="4" class="fil0" points="5233,637 5957,637 5957,818 5233,818 5233,1180 5052,1180 5052,275 5957,275 5957,456 5233,456 "/>
  <polygon id="5" class="fil0" points="6301,1180 6120,1180 6120,275 6301,275 "/>
  <path id="6" class="fil0" d="M7370 999l0 181 -604 0c-201,0 -301,-100 -301,-301l0 -302c0,-201 100,-302 301,-302l604 0 0 181 -579 0c-97,0 -145,49 -145,145l0 253c0,97 48,145 146,145l578 0z"/>
  <path id="7" class="fil0" d="M7741 999l-79 181 -197 0 393 -905 196 0 393 905 -197 0 -78 -181 -431 0zm352 -181l-137 -315 -137 315 274 0z"/>
  <polygon id="8" class="fil0" points="8903,456 8542,456 8541,275 9446,275 9446,456 9084,456 9084,1180 8903,1180 "/>
  <polygon id="9" class="fil0" points="9790,999 10514,999 10514,1180 9609,1180 9609,275 10514,275 10514,456 9790,456 9790,637 10514,637 10514,818 9790,818 "/>
  <path id="10" class="fil0" d="M10678 456l0 -181 603 0c201,0 302,101 302,302l0 302c0,201 -101,301 -302,301l-603 0 0 -181 578 0c96,0 144,-47 144,-142l0 -258c0,-95 -48,-143 -144,-143l-578 0z"/>
  <polygon id="11" class="fil0" points="12463,1180 12169,503 11875,1180 11678,1180 12071,275 12267,275 12660,1180 "/>
  <path id="12" class="fil0" d="M13327 999c101,0 151,-50 151,-150l0 -242c0,-100 -50,-151 -151,-151l-271 0c-81,0 -121,51 -121,151l0 242c0,100 50,150 151,150l241 0zm30 181l-301 1 0 -1c-201,0 -302,-100 -302,-301l0 -302c0,-201 101,-302 302,-302l301 0c202,0 302,101 302,302l0 302c0,201 -100,301 -302,301z"/>
  <path class="fil1" d="M0 0l1327 0 0 1327 -1004 0c0,0 -188,-887 408,-924 221,-4 400,109 473,383l33 0 -28 -457 -33 0c0,0 -25,99 -85,96 -60,-4 -105,-96 -360,-96 -255,0 -839,261 -627,998l-104 0 0 -1327z"/>
 </g>
</svg>
